<svg width="356" height="97" viewBox="0 0 356 97" fill="none" xmlns="http://www.w3.org/2000/svg">
<path d="M5.664 85V31.432H21.792V85H5.664ZM13.824 25.768C10.688 25.768 8.128 24.872 6.144 23.08C4.16 21.288 3.168 19.048 3.168 16.36C3.168 13.608 4.16 11.336 6.144 9.544C8.128 7.688 10.688 6.75999 13.824 6.75999C16.896 6.75999 19.424 7.688 21.408 9.544C23.392 11.336 24.384 13.608 24.384 16.36C24.384 19.048 23.392 21.288 21.408 23.08C19.424 24.872 16.896 25.768 13.824 25.768ZM45.7065 31.432L57.6105 69.928L69.3225 31.432H86.5065L67.4985 85H47.5305L28.4265 31.432H45.7065ZM113.387 85.672C108.715 85.672 104.619 84.456 101.099 82.024C97.6425 79.592 94.9545 76.328 93.0345 72.232C91.1785 68.072 90.2505 63.4 90.2505 58.216C90.2505 53.096 91.1785 48.456 93.0345 44.296C94.9545 40.136 97.6425 36.84 101.099 34.408C104.619 31.976 108.715 30.76 113.387 30.76C117.483 30.76 121.035 31.88 124.043 34.12C127.115 36.296 129.259 39.368 130.475 43.336V31.432H146.699V85H138.731C136.171 85 134.155 84.296 132.683 82.888C131.211 81.416 130.475 79.4 130.475 76.84V73.192C129.259 77.096 127.115 80.168 124.043 82.408C121.035 84.584 117.483 85.672 113.387 85.672ZM118.667 71.464C120.779 71.464 122.731 70.952 124.523 69.928C126.315 68.904 127.755 67.4 128.843 65.416C129.931 63.432 130.475 61.032 130.475 58.216C130.475 55.464 129.931 53.096 128.843 51.112C127.755 49.128 126.315 47.592 124.523 46.504C122.731 45.416 120.779 44.872 118.667 44.872C116.491 44.872 114.507 45.416 112.715 46.504C110.923 47.592 109.483 49.128 108.395 51.112C107.371 53.096 106.859 55.464 106.859 58.216C106.859 61.032 107.371 63.432 108.395 65.416C109.483 67.4 110.923 68.904 112.715 69.928C114.571 70.952 116.555 71.464 118.667 71.464ZM158.671 85V31.432H174.895V42.856C175.663 40.36 176.911 38.216 178.639 36.424C180.367 34.632 182.351 33.256 184.591 32.296C186.895 31.272 189.263 30.76 191.695 30.76C195.791 30.76 199.343 31.688 202.351 33.544C205.359 35.4 207.695 38.024 209.359 41.416C211.023 44.808 211.855 48.84 211.855 53.512V85H195.631V56.104C195.631 52.456 194.703 49.576 192.847 47.464C190.991 45.352 188.495 44.296 185.359 44.296C183.247 44.296 181.391 44.872 179.791 46.024C178.255 47.112 177.039 48.616 176.143 50.536C175.311 52.456 174.895 54.632 174.895 57.064V85H158.671ZM249.89 68.392V13.96H266.114V67.624C266.114 69.032 266.53 70.088 267.362 70.792C268.258 71.496 269.282 71.848 270.434 71.848C271.202 71.848 271.938 71.72 272.642 71.464L275.234 83.944C272.674 85.096 269.794 85.672 266.594 85.672C263.906 85.672 261.282 85.128 258.722 84.04C256.162 82.952 254.05 81.16 252.386 78.664C250.722 76.104 249.89 72.68 249.89 68.392ZM306.992 85.672C301.744 85.672 297.04 84.584 292.88 82.408C288.72 80.168 285.424 76.968 282.992 72.808C280.624 68.648 279.44 63.784 279.44 58.216C279.44 52.584 280.656 47.72 283.088 43.624C285.52 39.528 288.816 36.36 292.976 34.12C297.2 31.88 301.936 30.76 307.184 30.76C312.496 30.76 317.232 31.88 321.392 34.12C325.616 36.296 328.944 39.464 331.376 43.624C333.808 47.72 335.024 52.584 335.024 58.216C335.024 63.784 333.776 68.648 331.28 72.808C328.784 76.968 325.424 80.168 321.2 82.408C316.976 84.584 312.24 85.672 306.992 85.672ZM306.992 71.656C308.976 71.656 310.832 71.176 312.56 70.216C314.352 69.192 315.792 67.688 316.88 65.704C317.968 63.72 318.512 61.224 318.512 58.216C318.512 55.144 317.968 52.648 316.88 50.728C315.792 48.744 314.384 47.272 312.656 46.312C310.992 45.352 309.168 44.872 307.184 44.872C305.2 44.872 303.344 45.352 301.616 46.312C299.952 47.272 298.576 48.744 297.488 50.728C296.464 52.648 295.952 55.144 295.952 58.216C295.952 61.224 296.432 63.72 297.392 65.704C298.416 67.688 299.76 69.192 301.424 70.216C303.152 71.176 305.008 71.656 306.992 71.656Z" fill="#14213D"/>
<path d="M232.072 85.672C229.128 85.672 226.728 84.808 224.872 83.08C223.08 81.352 222.184 79.208 222.184 76.648C222.184 74.088 223.08 71.944 224.872 70.216C226.728 68.424 229.128 67.528 232.072 67.528C235.016 67.528 237.384 68.424 239.176 70.216C241.032 71.944 241.96 74.088 241.96 76.648C241.96 79.208 241.032 81.352 239.176 83.08C237.384 84.808 235.016 85.672 232.072 85.672Z" fill="#FCA311"/>
<circle cx="14" cy="14" r="14" fill="#FCA311"/>
<path d="M242 77C242 82.5228 237.323 87 231.8 87C226.277 87 221.8 82.5228 221.8 77C221.8 71.4772 226.477 67 232 67C237.523 67 242 71.4772 242 77Z" fill="#FCA311"/>
</svg>
